
<svg width="1436px" height="680px" viewBox="0 0 1436 680" version="1.1" xmlns="http://www.w3.org/2000/svg" xmlns:xlink="http://www.w3.org/1999/xlink">
    <!-- Generator: Sketch 51.2 (57519) - http://www.bohemiancoding.com/sketch -->
    <desc>Created with Sketch.</desc>
    <defs></defs>
    <g id="Design" stroke="none" stroke-width="1" fill="none" fill-rule="evenodd">
        <g id="HR_option_desktop_1" transform="translate(-4.000000, -100.000000)" stroke="#C1CFE7" stroke-width="2">
            <g id="1.-Leadspace" transform="translate(0.000000, 100.000000)">
                <g id="art" style="mix-blend-mode: hard-light;" transform="translate(2.000000, -225.000000)">
                    <path d="M1376.47436,256.714889 L1440.37299,224.062927" id="Stroke-11"></path>
                    <path d="M1376.89708,302.501698 L1439.79216,268.681194" id="Stroke-13"></path>
                    <path d="M1377.32103,348.288507 L1439.20846,313.296719" id="Stroke-15"></path>
                    <path d="M1377.74376,394.076688 L1438.62626,357.914986" id="Stroke-17"></path>
                    <path d="M1378,440 L1438,403" id="Stroke-20"></path>
                    <path d="M1378,485 L1437,447" id="Stroke-21"></path>
                    <path d="M1379,532 L1437,492" id="Stroke-22"></path>
                    <path d="M1379,577 L1436,536" id="Stroke-23"></path>
                    <path d="M1380,623 L1436,581" id="Stroke-24"></path>
                    <path d="M1380,669 L1435,626" id="Stroke-25"></path>
                    <path d="M1380,714 L1434,670" id="Stroke-26"></path>
                    <path d="M1381,760 L1434,715" id="Stroke-27"></path>
                    <path d="M1381,806 L1433,759" id="Stroke-28"></path>
                    <path d="M1382,852 L1433,804" id="Stroke-29"></path>
                    <path d="M1382,897 L1432,848" id="Stroke-30"></path>
                    <path d="M1383,943 L1432,893" id="Stroke-31"></path>
                    <path d="M1319,257 L1377,226" id="Stroke-41"></path>
                    <path d="M1319,303 L1376,271" id="Stroke-42"></path>
                    <path d="M1320,349 L1376,316" id="Stroke-43"></path>
                    <path d="M1320,394 L1376,360" id="Stroke-44"></path>
                    <path d="M1321,440 L1376,405" id="Stroke-45"></path>
                    <path d="M1321,486 L1375,450" id="Stroke-46"></path>
                    <path d="M1321,532 L1374,495" id="Stroke-47"></path>
                    <path d="M1322,577 L1374,539" id="Stroke-48"></path>
                    <path d="M1322,623 L1373,584" id="Stroke-49"></path>
                    <path d="M1323,669 L1373,629" id="Stroke-50"></path>
                    <path d="M1323,715 L1372,674" id="Stroke-51"></path>
                    <path d="M1323,759 L1371,718" id="Stroke-52"></path>
                    <path d="M1324,805 L1371,763" id="Stroke-53"></path>
                    <path d="M1324,851 L1370,808" id="Stroke-54"></path>
                    <path d="M1325,896 L1370,852" id="Stroke-55"></path>
                    <path d="M1325,942 L1370,897" id="Stroke-56"></path>
                    <path d="M1262,258 L1314,228" id="Stroke-66"></path>
                    <path d="M1262,304 L1314,273" id="Stroke-67"></path>
                    <path d="M1263,349 L1314,318" id="Stroke-68"></path>
                    <path d="M1263,395 L1313,363" id="Stroke-69"></path>
                    <path d="M1263,441 L1312,408" id="Stroke-70"></path>
                    <path d="M1264,486 L1312,453" id="Stroke-71"></path>
                    <path d="M1264,531 L1312,497" id="Stroke-72"></path>
                    <path d="M1264,577 L1311,542" id="Stroke-73"></path>
                    <path d="M1265,622 L1311,587" id="Stroke-74"></path>
                    <path d="M1265,668 L1310,632" id="Stroke-75"></path>
                    <path d="M1266,714 L1310,677" id="Stroke-76"></path>
                    <path d="M1266,759 L1309,722" id="Stroke-77"></path>
                    <path d="M1266,805 L1309,767" id="Stroke-78"></path>
                    <path d="M1267,851 L1309,812" id="Stroke-79"></path>
                    <path d="M1267,896 L1308,856" id="Stroke-80"></path>
                    <path d="M1267,941 L1307,901" id="Stroke-81"></path>
                    <path d="M1205,258 L1252,230" id="Stroke-89"></path>
                    <path d="M1205,304 L1251,275" id="Stroke-90"></path>
                    <path d="M1205,349 L1250,320" id="Stroke-91"></path>
                    <path d="M1206,395 L1250,365" id="Stroke-92"></path>
                    <path d="M1206,440 L1250,410" id="Stroke-93"></path>
                    <path d="M1206,486 L1249,455" id="Stroke-94"></path>
                    <path d="M1207,531 L1249,500" id="Stroke-95"></path>
                    <path d="M1207,577 L1248,545" id="Stroke-96"></path>
                    <path d="M1207,622 L1248,590" id="Stroke-97"></path>
                    <path d="M1208,668 L1248,635" id="Stroke-98"></path>
                    <path d="M1208,713 L1247,680" id="Stroke-99"></path>
                    <path d="M1208,758 L1247,725" id="Stroke-100"></path>
                    <path d="M1209,804 L1247,770" id="Stroke-101"></path>
                    <path d="M1209,849 L1246,815" id="Stroke-102"></path>
                    <path d="M1209,895 L1245,860" id="Stroke-103"></path>
                    <path d="M1148,259 L1189,232" id="Stroke-112"></path>
                    <path d="M1148,304 L1188,277" id="Stroke-113"></path>
                    <path d="M1148,350 L1188,323" id="Stroke-114"></path>
                    <path d="M1149,396 L1188,368" id="Stroke-115"></path>
                    <path d="M1149,441 L1187,413" id="Stroke-116"></path>
                    <path d="M1149,486 L1187,458" id="Stroke-117"></path>
                    <path d="M1149,531 L1186,503" id="Stroke-118"></path>
                    <path d="M1150,577 L1186,548" id="Stroke-119"></path>
                    <path d="M1150,622 L1186,593" id="Stroke-120"></path>
                    <path d="M1150,668 L1185,639" id="Stroke-121"></path>
                    <path d="M1151,713 L1185,684" id="Stroke-122"></path>
                    <path d="M1151,758 L1185,729" id="Stroke-123"></path>
                    <path d="M1151,804 L1184,774" id="Stroke-124"></path>
                    <path d="M1152,849 L1184,819" id="Stroke-125"></path>
                    <path d="M1152,894 L1184,864" id="Stroke-126"></path>
                    <path d="M1091,260 L1126,234" id="Stroke-135"></path>
                    <path d="M1091,305 L1125,279" id="Stroke-136"></path>
                    <path d="M1091,351 L1125,325" id="Stroke-137"></path>
                    <path d="M1091,396 L1124,370" id="Stroke-138"></path>
                    <path d="M1092,441 L1125,415" id="Stroke-139"></path>
                    <path d="M1092,487 L1124,461" id="Stroke-140"></path>
                    <path d="M1092,532 L1124,506" id="Stroke-141"></path>
                    <path d="M1092,577 L1123,551" id="Stroke-142"></path>
                    <path d="M1093,622 L1124,597" id="Stroke-143"></path>
                    <path d="M1093,667 L1123,642" id="Stroke-144"></path>
                    <path d="M1093,712 L1122,687" id="Stroke-145"></path>
                    <path d="M1093,758 L1122,733" id="Stroke-146"></path>
                    <path d="M1094,803 L1122,778" id="Stroke-147"></path>
                    <path d="M1094,848 L1122,823" id="Stroke-148"></path>
                    <path d="M1094,893 L1121,868" id="Stroke-149"></path>
                    <path d="M1034,260 L1063,236" id="Stroke-157"></path>
                    <path d="M1034,306 L1063,282" id="Stroke-158"></path>
                    <path d="M1034,351 L1062,327" id="Stroke-159"></path>
                    <path d="M1034,396 L1062,373" id="Stroke-160"></path>
                    <path d="M1034,441 L1061,418" id="Stroke-161"></path>
                    <path d="M1035,486 L1062,463" id="Stroke-162"></path>
                    <path d="M1035,532 L1061,509" id="Stroke-163"></path>
                    <path d="M1035,576 L1061,554" id="Stroke-164"></path>
                    <path d="M1035,622 L1060,600" id="Stroke-165"></path>
                    <path d="M1036,667 L1061,645" id="Stroke-166"></path>
                    <path d="M1036,713 L1060,691" id="Stroke-167"></path>
                    <path d="M1036,757 L1060,736" id="Stroke-168"></path>
                    <path d="M1036,803 L1060,782" id="Stroke-169"></path>
                    <path d="M1036,848 L1059,827" id="Stroke-170"></path>
                    <path d="M1037,893 L1060,872" id="Stroke-171"></path>
                    <path d="M976,261 L999,238" id="Stroke-179"></path>
                    <path d="M977,306 L1000,284" id="Stroke-180"></path>
                    <path d="M977,351 L1000,329" id="Stroke-181"></path>
                    <path d="M977,396 L999,375" id="Stroke-182"></path>
                    <path d="M977,442 L999,421" id="Stroke-183"></path>
                    <path d="M977,486 L998,466" id="Stroke-184"></path>
                    <path d="M978,532 L999,512" id="Stroke-185"></path>
                    <path d="M978,576 L999,557" id="Stroke-186"></path>
                    <path d="M978,622 L998,603" id="Stroke-187"></path>
                    <path d="M978,667 L998,649" id="Stroke-188"></path>
                    <path d="M978,712 L998,694" id="Stroke-189"></path>
                    <path d="M979,757 L998,740" id="Stroke-190"></path>
                    <path d="M979,802 L998,785" id="Stroke-191"></path>
                    <path d="M979,847 L997,831" id="Stroke-192"></path>
                    <path d="M979,892 L997,876" id="Stroke-193"></path>
                    <path d="M919,261 L936,240" id="Stroke-201"></path>
                    <path d="M919,307 L936,286" id="Stroke-202"></path>
                    <path d="M920,352 L937,332" id="Stroke-203"></path>
                    <path d="M920,396 L937,377" id="Stroke-204"></path>
                    <path d="M920,442 L936,423" id="Stroke-205"></path>
                    <path d="M920,487 L936,469" id="Stroke-206"></path>
                    <path d="M920,532 L936,515" id="Stroke-207"></path>
                    <path d="M920,576 L935,560" id="Stroke-208"></path>
                    <path d="M921,622 L936,606" id="Stroke-209"></path>
                    <path d="M921,667 L936,652" id="Stroke-210"></path>
                    <path d="M921,712 L936,698" id="Stroke-211"></path>
                    <path d="M921,756 L935,743" id="Stroke-212"></path>
                    <path d="M921,802 L935,789" id="Stroke-213"></path>
                    <path d="M921,847 L935,835" id="Stroke-214"></path>
                    <path d="M922,891 L935,880" id="Stroke-215"></path>
                    <path d="M862,262 L874,242" id="Stroke-223"></path>
                    <path d="M862,307 L873,288" id="Stroke-224"></path>
                    <path d="M862,352 L873,334" id="Stroke-225"></path>
                    <path d="M863,397 L874,380" id="Stroke-226"></path>
                    <path d="M863,442 L874,426" id="Stroke-227"></path>
                    <path d="M863,487 L874,472" id="Stroke-228"></path>
                    <path d="M863,531 L873,517" id="Stroke-229"></path>
                    <path d="M863,576 L873,563" id="Stroke-230"></path>
                    <path d="M863,621 L873,609" id="Stroke-231"></path>
                    <path d="M863,666 L873,655" id="Stroke-232"></path>
                    <path d="M863,711 L873,701" id="Stroke-233"></path>
                    <path d="M864,756 L873,747" id="Stroke-234"></path>
                    <path d="M864,801 L873,793" id="Stroke-235"></path>
                    <path d="M864,846 L873,839" id="Stroke-236"></path>
                    <path d="M864,890 L873,884" id="Stroke-237"></path>
                    <path d="M805,263 L811,244" id="Stroke-245"></path>
                    <path d="M805,307 L811,290" id="Stroke-246"></path>
                    <path d="M805,352 L811,336" id="Stroke-247"></path>
                    <path d="M805,397 L810,382" id="Stroke-248"></path>
                    <path d="M805,442 L810,428" id="Stroke-249"></path>
                    <path d="M806,487 L811,474" id="Stroke-250"></path>
                    <path d="M806,531 L811,520" id="Stroke-251"></path>
                    <path d="M806,576 L811,566" id="Stroke-252"></path>
                    <path d="M806,621 L811,612" id="Stroke-253"></path>
                    <path d="M806,666 L811,658" id="Stroke-254"></path>
                    <path d="M806,711 L811,704" id="Stroke-255"></path>
                    <path d="M806,755 L811,750" id="Stroke-256"></path>
                    <path d="M806,800 L811,796" id="Stroke-257"></path>
                    <path d="M806,845 L810,842" id="Stroke-258"></path>
                    <path d="M806,890 L810,888" id="Stroke-259"></path>
                    <path d="M748.048,245 L748,265" id="Stroke-267"></path>
                    <path d="M748.058,291 L748,310" id="Stroke-268"></path>
                    <path d="M748.067,336 L748,354" id="Stroke-269"></path>
                    <path d="M748.077,382 L748,399" id="Stroke-270"></path>
                    <path d="M748.086,428 L748,445" id="Stroke-271"></path>
                    <path d="M748.096,474 L748,490" id="Stroke-272"></path>
                    <path d="M748.105,520 L748,535" id="Stroke-273"></path>
                    <path d="M748.115,566 L748,580" id="Stroke-274"></path>
                    <path d="M748.125,612 L748,625" id="Stroke-275"></path>
                    <path d="M748.134,658 L748,670" id="Stroke-276"></path>
                    <path d="M748.144,704 L748,715" id="Stroke-277"></path>
                    <path d="M748.154,749 L748,759" id="Stroke-278"></path>
                    <path d="M748.163,795 L748,804" id="Stroke-279"></path>
                    <path d="M749.173,841 L749,850" id="Stroke-280"></path>
                    <path d="M749.183,887 L749,895" id="Stroke-281"></path>
                    <path d="M685,262 L680,245" id="Stroke-290"></path>
                    <path d="M685,306 L680,291" id="Stroke-291"></path>
                    <path d="M685,351 L680,338" id="Stroke-292"></path>
                    <path d="M685,396 L680,384" id="Stroke-293"></path>
                    <path d="M685,440 L680,430" id="Stroke-294"></path>
                    <path d="M685,484 L680,476" id="Stroke-295"></path>
                    <path d="M686,529 L681,522" id="Stroke-296"></path>
                    <path d="M686,574 L681,569" id="Stroke-297"></path>
                    <path d="M686,618 L681,615" id="Stroke-298"></path>
                    <path d="M686,663 L681,661" id="Stroke-299"></path>
                    <path d="M686,707.031 L681,707" id="Stroke-300"></path>
                    <path d="M686,752 L681,754" id="Stroke-301"></path>
                    <path d="M686,796 L681,799" id="Stroke-302"></path>
                    <path d="M686,841 L681,846" id="Stroke-303"></path>
                    <path d="M686,886 L681,893" id="Stroke-304"></path>
                    <path d="M622,260 L612,244" id="Stroke-313"></path>
                    <path d="M622,304 L612,290" id="Stroke-314"></path>
                    <path d="M622,349 L613,337" id="Stroke-315"></path>
                    <path d="M622,393 L613,383" id="Stroke-316"></path>
                    <path d="M622,438 L613,429" id="Stroke-317"></path>
                    <path d="M622,482 L613,475" id="Stroke-318"></path>
                    <path d="M622,527 L613,522" id="Stroke-319"></path>
                    <path d="M622,571 L613,568" id="Stroke-320"></path>
                    <path d="M622,614.748 L613,614" id="Stroke-321"></path>
                    <path d="M622,660 L613,660.618" id="Stroke-322"></path>
                    <path d="M622,704 L613,707" id="Stroke-323"></path>
                    <path d="M622,748 L613,753" id="Stroke-324"></path>
                    <path d="M622,793 L613,799" id="Stroke-325"></path>
                    <path d="M623,837 L614,845" id="Stroke-326"></path>
                    <path d="M623,882 L614,892" id="Stroke-327"></path>
                    <path d="M559,258 L545,243" id="Stroke-335"></path>
                    <path d="M559,302 L545,289" id="Stroke-336"></path>
                    <path d="M559,347 L545,336" id="Stroke-337"></path>
                    <path d="M559,391 L545,382" id="Stroke-338"></path>
                    <path d="M559,435 L545,428" id="Stroke-339"></path>
                    <path d="M559,480 L545,475" id="Stroke-340"></path>
                    <path d="M559,524 L545,521" id="Stroke-341"></path>
                    <path d="M559,567.561 L545,567" id="Stroke-342"></path>
                    <path d="M560,612 L546,612.96" id="Stroke-343"></path>
                    <path d="M560,657 L546,660" id="Stroke-344"></path>
                    <path d="M560,701 L546,706" id="Stroke-345"></path>
                    <path d="M560,745 L546,753" id="Stroke-346"></path>
                    <path d="M560,789 L546,799" id="Stroke-347"></path>
                    <path d="M559,833 L546,845" id="Stroke-348"></path>
                    <path d="M559,878 L546,892" id="Stroke-349"></path>
                    <path d="M496,257 L477,242" id="Stroke-357"></path>
                    <path d="M496,300 L477,288" id="Stroke-358"></path>
                    <path d="M496,345 L477,335" id="Stroke-359"></path>
                    <path d="M496,389 L477,381" id="Stroke-360"></path>
                    <path d="M496,433 L477,427" id="Stroke-361"></path>
                    <path d="M496,477 L477,474" id="Stroke-362"></path>
                    <path d="M497,520.682 L478,520" id="Stroke-363"></path>
                    <path d="M496,565 L478,565.992" id="Stroke-364"></path>
                    <path d="M496,609 L478,613" id="Stroke-365"></path>
                    <path d="M496,653 L478,659" id="Stroke-366"></path>
                    <path d="M496,697 L478,705" id="Stroke-367"></path>
                    <path d="M496,742 L478,753" id="Stroke-368"></path>
                    <path d="M497,786 L479,799" id="Stroke-369"></path>
                    <path d="M497,830 L479,845" id="Stroke-370"></path>
                    <path d="M497,874 L479,891" id="Stroke-371"></path>
                    <path d="M433,255 L409,241" id="Stroke-379"></path>
                    <path d="M433,299 L409,287" id="Stroke-380"></path>
                    <path d="M433,343 L409,334" id="Stroke-381"></path>
                    <path d="M432,387 L409,380" id="Stroke-382"></path>
                    <path d="M433,431 L410,427" id="Stroke-383"></path>
                    <path d="M433,475 L410,473" id="Stroke-384"></path>
                    <path d="M433,519 L410,519.718" id="Stroke-385"></path>
                    <path d="M433,562 L410,565" id="Stroke-386"></path>
                    <path d="M433,606 L410,612" id="Stroke-387"></path>
                    <path d="M433,650 L410,659" id="Stroke-388"></path>
                    <path d="M434,694 L411,705" id="Stroke-389"></path>
                    <path d="M434,738 L411,752" id="Stroke-390"></path>
                    <path d="M433,782 L411,798" id="Stroke-391"></path>
                    <path d="M433,826 L411,845" id="Stroke-392"></path>
                    <path d="M433,870 L411,891" id="Stroke-393"></path>
                    <path d="M370,253 L341,240" id="Stroke-401"></path>
                    <path d="M369,297 L341,286" id="Stroke-402"></path>
                    <path d="M370,341 L342,333" id="Stroke-403"></path>
                    <path d="M370,384 L342,379" id="Stroke-404"></path>
                    <path d="M370,429 L342,426" id="Stroke-405"></path>
                    <path d="M370,472 L342,472.134" id="Stroke-406"></path>
                    <path d="M370,516 L342,519" id="Stroke-407"></path>
                    <path d="M371,560 L343,566" id="Stroke-408"></path>
                    <path d="M370,603 L343,611" id="Stroke-409"></path>
                    <path d="M370,647 L343,658" id="Stroke-410"></path>
                    <path d="M370,691 L343,705" id="Stroke-411"></path>
                    <path d="M370,735 L343,751" id="Stroke-412"></path>
                    <path d="M371,778 L344,797" id="Stroke-413"></path>
                    <path d="M371,822 L344,844" id="Stroke-414"></path>
                    <path d="M371,866 L344,891" id="Stroke-415"></path>
                    <path d="M306,252 L273,239" id="Stroke-423"></path>
                    <path d="M307,295 L274,285" id="Stroke-424"></path>
                    <path d="M307,339 L274,332" id="Stroke-425"></path>
                    <path d="M307,382 L274,378" id="Stroke-426"></path>
                    <path d="M307,425.758 L274,425" id="Stroke-427"></path>
                    <path d="M306,470 L274,472" id="Stroke-428"></path>
                    <path d="M307,513 L275,518" id="Stroke-429"></path>
                    <path d="M307,557 L275,565" id="Stroke-430"></path>
                    <path d="M307,600 L275,611" id="Stroke-431"></path>
                    <path d="M307,644 L275,658" id="Stroke-432"></path>
                    <path d="M308,688 L276,705" id="Stroke-433"></path>
                    <path d="M307,731 L276,750" id="Stroke-434"></path>
                    <path d="M307,775 L276,797" id="Stroke-435"></path>
                    <path d="M307,818 L276,843" id="Stroke-436"></path>
                    <path d="M307,862 L276,890" id="Stroke-437"></path>
                    <path d="M244,250 L206,238" id="Stroke-445"></path>
                    <path d="M244,293 L206,284" id="Stroke-446"></path>
                    <path d="M244,337 L206,331" id="Stroke-447"></path>
                    <path d="M243,381 L206,378" id="Stroke-448"></path>
                    <path d="M244,424 L207,424.334" id="Stroke-449"></path>
                    <path d="M244,467 L207,471" id="Stroke-450"></path>
                    <path d="M244,511 L207,518" id="Stroke-451"></path>
                    <path d="M244,554 L207,564" id="Stroke-452"></path>
                    <path d="M245,597 L208,610" id="Stroke-453"></path>
                    <path d="M244,641 L208,657" id="Stroke-454"></path>
                    <path d="M244,684 L208,703" id="Stroke-455"></path>
                    <path d="M244,728 L208,750" id="Stroke-456"></path>
                    <path d="M245,771 L209,797" id="Stroke-457"></path>
                    <path d="M245,815 L209,844" id="Stroke-458"></path>
                    <path d="M244,858 L209,890" id="Stroke-459"></path>
                    <path d="M244,901 L209,936" id="Stroke-460"></path>
                    <path d="M181,248 L138,237" id="Stroke-468"></path>
                    <path d="M181,292 L138,284" id="Stroke-469"></path>
                    <path d="M180,335 L138,330" id="Stroke-470"></path>
                    <path d="M181,378 L139,377" id="Stroke-471"></path>
                    <path d="M181,421 L139,423" id="Stroke-472"></path>
                    <path d="M181,465 L139,470" id="Stroke-473"></path>
                    <path d="M180,508 L139,517" id="Stroke-474"></path>
                    <path d="M181,551 L140,563" id="Stroke-475"></path>
                    <path d="M181,594 L140,609" id="Stroke-476"></path>
                    <path d="M181,638 L140,657" id="Stroke-477"></path>
                    <path d="M182,681 L141,703" id="Stroke-478"></path>
                    <path d="M181,724 L141,749" id="Stroke-479"></path>
                    <path d="M181,768 L141,797" id="Stroke-480"></path>
                    <path d="M181,811 L141,843" id="Stroke-481"></path>
                    <path d="M182,854 L142,889" id="Stroke-482"></path>
                    <path d="M182,897 L142,936" id="Stroke-483"></path>
                    <path d="M118,247 L70,236" id="Stroke-491"></path>
                    <path d="M117,290 L70,283" id="Stroke-492"></path>
                    <path d="M118,333 L71,329" id="Stroke-493"></path>
                    <path d="M118,376.083 L71,376" id="Stroke-494"></path>
                    <path d="M118,419 L71,422" id="Stroke-495"></path>
                    <path d="M118,462 L72,469" id="Stroke-496"></path>
                    <path d="M118,505 L72,516" id="Stroke-497"></path>
                    <path d="M118,548 L72,562" id="Stroke-498"></path>
                    <path d="M118,592 L72,610" id="Stroke-499"></path>
                    <path d="M118,635 L73,656" id="Stroke-500"></path>
                    <path d="M118,678 L73,703" id="Stroke-501"></path>
                    <path d="M118,721 L73,749" id="Stroke-502"></path>
                    <path d="M119,764 L74,796" id="Stroke-503"></path>
                    <path d="M118,807 L74,843" id="Stroke-504"></path>
                    <path d="M118,850 L74,889" id="Stroke-505"></path>
                    <path d="M118,893 L74,936" id="Stroke-506"></path>
                    <path d="M54.2976,244.778625 L2.23945366,234.625676" id="Stroke-518"></path>
                    <path d="M54.3510049,287.733758 L2.55783415,281.35543" id="Stroke-520"></path>
                    <path d="M54.4037268,330.688891 L2.87416585,328.083813" id="Stroke-522"></path>
                    <path d="M54.4563122,373.644025 L3.19309268,374.813568" id="Stroke-524"></path>
                    <path d="M54.5097171,416.599158 L3.51010732,421.541951" id="Stroke-526"></path>
                    <path d="M54.562439,459.55292 L3.82780488,468.271705" id="Stroke-528"></path>
                    <path d="M54.6157073,502.508053 L4.14604878,515.001459" id="Stroke-530"></path>
                    <path d="M54.6684293,545.463186 L4.46374634,561.729843" id="Stroke-532"></path>
                    <path d="M54.7211512,588.41832 L4.7814439,608.459597" id="Stroke-534"></path>
                    <path d="M54.7745561,631.373453 L5.09845854,655.189351" id="Stroke-536"></path>
                    <path d="M54.8271415,674.327215 L5.41738537,701.919105" id="Stroke-538"></path>
                    <path d="M55,717 L6,748" id="Stroke-541"></path>
                    <path d="M55,760 L6,795" id="Stroke-542"></path>
                    <path d="M55,803 L6,842" id="Stroke-543"></path>
                    <path d="M56,846 L7,889" id="Stroke-544"></path>
                    <path d="M55,889 L7,935" id="Stroke-545"></path>
                </g>
            </g>
        </g>
    </g>
</svg>