<?xml version="1.0" encoding="UTF-8"?>
<svg width="289px" height="115px" viewBox="0 0 289 115" version="1.1" xmlns="http://www.w3.org/2000/svg" xmlns:xlink="http://www.w3.org/1999/xlink">
    <!-- Generator: Sketch 50.2 (55047) - http://www.bohemiancoding.com/sketch -->
    <title>Group 102</title>
    <desc>Created with Sketch.</desc>
    <defs>
        <polygon id="path-1" points="0.301211538 0.894742974 22.3055769 0.894742974 22.3055769 43.6164816 0.301211538 43.6164816"></polygon>
        <polygon id="path-3" points="0.08937 0.531 8.51067 0.531 8.51067 8.95302 0.08937 8.95302"></polygon>
        <polygon id="path-5" points="0.25506 0.531 8.67636 0.531 8.67636 8.95302 0.25506 8.95302"></polygon>
        <polygon id="path-7" points="0.42111 0.531 8.84241 0.531 8.84241 8.95302 0.42111 8.95302"></polygon>
        <polygon id="path-9" points="0.593181818 0.531 9.09954545 0.531 9.09954545 8.95302 0.593181818 8.95302"></polygon>
        <polygon id="path-11" points="0.760545455 0.531 9.26690909 0.531 9.26690909 8.95302 0.760545455 8.95302"></polygon>
        <polygon id="path-13" points="0.01908 0.531 8.44038 0.531 8.44038 8.95302 0.01908 8.95302"></polygon>
        <polygon id="path-15" points="0.18513 0.531 8.60643 0.531 8.60643 8.95302 0.18513 8.95302"></polygon>
        <polygon id="path-17" points="0.35082 0.531 8.77212 0.531 8.77212 8.95302 0.35082 8.95302"></polygon>
        <polygon id="path-19" points="0.51696 0.531 8.93826 0.531 8.93826 8.95302 0.51696 8.95302"></polygon>
        <polygon id="path-21" points="0.69 0.531 9.19636364 0.531 9.19636364 8.95302 0.69 8.95302"></polygon>
        <polygon id="path-23" points="0.301211538 0.37907129 22.3055769 0.37907129 22.3055769 43 0.301211538 43"></polygon>
        <polygon id="path-25" points="0.464069231 0.37907129 22.4688769 0.37907129 22.4688769 43 0.464069231 43"></polygon>
        <polygon id="path-27" points="0.627369231 0.37907129 22.6321769 0.37907129 22.6321769 43 0.627369231 43"></polygon>
        <polygon id="path-29" points="0.790580769 0.37907129 22.7953885 0.37907129 22.7953885 43 0.790580769 43"></polygon>
        <polygon id="path-31" points="0.071576 0.37907129 22.956576 0.37907129 22.956576 43 0.071576 43"></polygon>
        <polygon id="path-33" points="0.232123077 0.37907129 22.2369308 0.37907129 22.2369308 43 0.232123077 43"></polygon>
        <polygon id="path-35" points="0.395334615 0.37907129 22.4001423 0.37907129 22.4001423 43 0.395334615 43"></polygon>
        <polygon id="path-37" points="0.558192308 0.37907129 22.563 0.37907129 22.563 43 0.558192308 43"></polygon>
        <polygon id="path-39" points="0.721492308 0.37907129 22.7263 0.37907129 22.7263 43 0.721492308 43"></polygon>
        <polygon id="path-41" points="0.000184 0.37907129 22.885184 0.37907129 22.885184 43 0.000184 43"></polygon>
    </defs>
    <g id="Design" stroke="none" stroke-width="1" fill="none" fill-rule="evenodd">
        <g id="HR_option_5a" transform="translate(-45.000000, -1045.000000)">
            <g id="Group-102" transform="translate(45.000000, 1045.000000)">
                <g id="Group-3" transform="translate(266.000000, 9.000000)">
                    <mask id="mask-2" fill="white">
                        <use xlink:href="#path-1"></use>
                    </mask>
                    <g id="Clip-2"></g>
                    <path d="M0.301211538,19.7684816 C0.301211538,20.7355837 1.07348077,21.5186041 2.02532692,21.5186041 C2.97805769,21.5186041 3.75032692,20.7355837 3.75032692,19.7684816 L3.75032692,7.30480816 L5.64163462,7.30480816 L5.64163462,41.2647265 C5.64163462,42.5640735 6.67840385,43.6164816 7.95755769,43.6164816 C9.23759615,43.6164816 10.2743654,42.5640735 10.2743654,41.2647265 L10.2743654,21.5186041 L12.1930962,21.5186041 L12.1930962,41.2647265 C12.1930962,42.5640735 13.2298654,43.6164816 14.5090192,43.6164816 C15.7881731,43.6164816 16.8258269,42.5640735 16.8258269,41.2647265 L16.8258269,7.30480816 L18.8569038,7.30480816 L18.8569038,19.7684816 C18.8569038,20.7355837 19.6291731,21.5186041 20.5810192,21.5186041 C21.53375,21.5186041 22.3060192,20.7355837 22.3060192,19.7684816 L22.3060192,5.62472653 C22.3060192,5.62472653 21.9610192,0.897869388 17.6494038,0.897869388 L4.78444231,0.897869388 C4.78444231,0.897869388 0.387019231,0.617706122 0.387019231,5.36162449 C0.387019231,10.1055429 0.301211538,19.7684816 0.301211538,19.7684816" id="Fill-1" fill="#DCDCDC" mask="url(#mask-2)"></path>
                </g>
                <g id="Group-6" transform="translate(273.000000, 0.000000)">
                    <mask id="mask-4" fill="white">
                        <use xlink:href="#path-3"></use>
                    </mask>
                    <g id="Clip-5"></g>
                    <path d="M0.08937,4.74192 C0.08937,7.06752 1.97487,8.95302 4.30047,8.95302 C6.62607,8.95302 8.51067,7.06752 8.51067,4.74192 C8.51067,2.41632 6.62607,0.53082 4.30047,0.53082 C1.97487,0.53082 0.08937,2.41632 0.08937,4.74192" id="Fill-4" fill="#DCDCDC" mask="url(#mask-4)"></path>
                </g>
                <path d="M236,28.9966698 C236,29.9700709 236.772101,30.7581914 237.724623,30.7581914 C238.676261,30.7581914 239.448362,29.9700709 239.448362,28.9966698 L239.448362,16.4518161 L241.339256,16.4518161 L241.339256,50.6329271 C241.339256,51.9407371 242.375799,53 243.655558,53 C244.934432,53 245.970975,51.9407371 245.970975,50.6329271 L245.970975,30.7581914 L247.889286,30.7581914 L247.889286,50.6329271 C247.889286,51.9407371 248.926714,53 250.205588,53 C251.484462,53 252.521005,51.9407371 252.521005,50.6329271 L252.521005,16.4518161 L254.551638,16.4518161 L254.551638,28.9966698 C254.551638,29.9700709 255.323739,30.7581914 256.276261,30.7581914 C257.227899,30.7581914 258,29.9700709 258,28.9966698 L258,14.7607916 C258,14.7607916 257.655075,10.0031468 253.345286,10.0031468 L240.483136,10.0031468 C240.483136,10.0031468 236.086673,9.72115871 236.086673,14.4959758 C236.086673,19.270793 236,28.9966698 236,28.9966698" id="Fill-7" fill="#DCDCDC"></path>
                <g id="Group-11" transform="translate(243.000000, 0.000000)">
                    <mask id="mask-6" fill="white">
                        <use xlink:href="#path-5"></use>
                    </mask>
                    <g id="Clip-10"></g>
                    <path d="M0.25506,4.74192 C0.25506,7.06752 2.14056,8.95302 4.46616,8.95302 C6.79176,8.95302 8.67636,7.06752 8.67636,4.74192 C8.67636,2.41632 6.79176,0.53082 4.46616,0.53082 C2.14056,0.53082 0.25506,2.41632 0.25506,4.74192" id="Fill-9" fill="#DCDCDC" mask="url(#mask-6)"></path>
                </g>
                <path d="M207,28.9966698 C207,29.9700709 207.772101,30.7581914 208.723739,30.7581914 C209.676261,30.7581914 210.448362,29.9700709 210.448362,28.9966698 L210.448362,16.4518161 L212.339256,16.4518161 L212.339256,50.6329271 C212.339256,51.9407371 213.375799,53 214.655558,53 C215.934432,53 216.970975,51.9407371 216.970975,50.6329271 L216.970975,30.7581914 L218.889286,30.7581914 L218.889286,50.6329271 C218.889286,51.9407371 219.925829,53 221.205588,53 C222.483578,53 223.521005,51.9407371 223.521005,50.6329271 L223.521005,16.4518161 L225.551638,16.4518161 L225.551638,28.9966698 C225.551638,29.9700709 226.323739,30.7581914 227.275377,30.7581914 C228.227899,30.7581914 229,29.9700709 229,28.9966698 L229,14.7607916 C229,14.7607916 228.655075,10.0031468 224.344402,10.0031468 L211.482251,10.0031468 C211.482251,10.0031468 207.086673,9.72115871 207.086673,14.4959758 C207.086673,19.270793 207,28.9966698 207,28.9966698" id="Fill-12" fill="#DCDCDC"></path>
                <g id="Group-16" transform="translate(213.000000, 0.000000)">
                    <mask id="mask-8" fill="white">
                        <use xlink:href="#path-7"></use>
                    </mask>
                    <g id="Clip-15"></g>
                    <path d="M0.42111,4.74192 C0.42111,7.06752 2.30661,8.95302 4.63221,8.95302 C6.95781,8.95302 8.84241,7.06752 8.84241,4.74192 C8.84241,2.41632 6.95781,0.53082 4.63221,0.53082 C2.30661,0.53082 0.42111,2.41632 0.42111,4.74192" id="Fill-14" fill="#DCDCDC" mask="url(#mask-8)"></path>
                </g>
                <path d="M177,28.9966698 C177,29.9700709 177.772101,30.7581914 178.723739,30.7581914 C179.676261,30.7581914 180.448362,29.9700709 180.448362,28.9966698 L180.448362,16.4518161 L182.339256,16.4518161 L182.339256,50.6329271 C182.339256,51.9407371 183.375799,53 184.654673,53 C185.934432,53 186.970975,51.9407371 186.970975,50.6329271 L186.970975,30.7581914 L188.889286,30.7581914 L188.889286,50.6329271 C188.889286,51.9407371 189.925829,53 191.204704,53 C192.483578,53 193.521005,51.9407371 193.521005,50.6329271 L193.521005,16.4518161 L195.551638,16.4518161 L195.551638,28.9966698 C195.551638,29.9700709 196.323739,30.7581914 197.275377,30.7581914 C198.227899,30.7581914 199,29.9700709 199,28.9966698 L199,14.7607916 C199,14.7607916 198.655075,10.0031468 194.344402,10.0031468 L181.482251,10.0031468 C181.482251,10.0031468 177.085789,9.72115871 177.085789,14.4959758 C177.085789,19.270793 177,28.9966698 177,28.9966698" id="Fill-17" fill="#DCDCDC"></path>
                <g id="Group-21" transform="translate(184.000000, 0.000000)">
                    <mask id="mask-10" fill="white">
                        <use xlink:href="#path-9"></use>
                    </mask>
                    <g id="Clip-20"></g>
                    <path d="M0.593181818,4.74192 C0.593181818,7.06752 2.49772727,8.95302 4.84681818,8.95302 C7.19590909,8.95302 9.09954545,7.06752 9.09954545,4.74192 C9.09954545,2.41632 7.19590909,0.53082 4.84681818,0.53082 C2.49772727,0.53082 0.593181818,2.41632 0.593181818,4.74192" id="Fill-19" fill="#DCDCDC" mask="url(#mask-10)"></path>
                </g>
                <path d="M148,28.9966698 C148,29.9700709 148.772101,30.7581914 149.724623,30.7581914 C150.676261,30.7581914 151.448362,29.9700709 151.448362,28.9966698 L151.448362,16.4518161 L153.339256,16.4518161 L153.339256,50.6329271 C153.339256,51.9407371 154.375799,53 155.655558,53 C156.934432,53 157.970975,51.9407371 157.970975,50.6329271 L157.970975,30.7581914 L159.889286,30.7581914 L159.889286,50.6329271 C159.889286,51.9407371 160.926714,53 162.205588,53 C163.484462,53 164.521005,51.9407371 164.521005,50.6329271 L164.521005,16.4518161 L166.551638,16.4518161 L166.551638,28.9966698 C166.551638,29.9700709 167.323739,30.7581914 168.276261,30.7581914 C169.227899,30.7581914 170,29.9700709 170,28.9966698 L170,14.7607916 C170,14.7607916 169.655075,10.0031468 165.345286,10.0031468 L152.483136,10.0031468 C152.483136,10.0031468 148.086673,9.72115871 148.086673,14.4959758 C148.086673,19.270793 148,28.9966698 148,28.9966698" id="Fill-22" fill="#DCDCDC"></path>
                <g id="Group-26" transform="translate(154.000000, 0.000000)">
                    <mask id="mask-12" fill="white">
                        <use xlink:href="#path-11"></use>
                    </mask>
                    <g id="Clip-25"></g>
                    <path d="M0.760545455,4.74192 C0.760545455,7.06752 2.66509091,8.95302 5.01418182,8.95302 C7.36327273,8.95302 9.26690909,7.06752 9.26690909,4.74192 C9.26690909,2.41632 7.36327273,0.53082 5.01418182,0.53082 C2.66509091,0.53082 0.760545455,2.41632 0.760545455,4.74192" id="Fill-24" fill="#DCDCDC" mask="url(#mask-12)"></path>
                </g>
                <path d="M118,28.9966698 C118,29.9700709 118.772101,30.7581914 119.723739,30.7581914 C120.676261,30.7581914 121.448362,29.9700709 121.448362,28.9966698 L121.448362,16.4518161 L123.339256,16.4518161 L123.339256,50.6329271 C123.339256,51.9407371 124.375799,53 125.655558,53 C126.934432,53 127.970975,51.9407371 127.970975,50.6329271 L127.970975,30.7581914 L129.889286,30.7581914 L129.889286,50.6329271 C129.889286,51.9407371 130.925829,53 132.205588,53 C133.483578,53 134.521005,51.9407371 134.521005,50.6329271 L134.521005,16.4518161 L136.551638,16.4518161 L136.551638,28.9966698 C136.551638,29.9700709 137.323739,30.7581914 138.275377,30.7581914 C139.227899,30.7581914 140,29.9700709 140,28.9966698 L140,14.7607916 C140,14.7607916 139.655075,10.0031468 135.344402,10.0031468 L122.482251,10.0031468 C122.482251,10.0031468 118.086673,9.72115871 118.086673,14.4959758 C118.086673,19.270793 118,28.9966698 118,28.9966698" id="Fill-27" fill="#006AFF"></path>
                <g id="Group-31" transform="translate(125.000000, 0.000000)">
                    <mask id="mask-14" fill="white">
                        <use xlink:href="#path-13"></use>
                    </mask>
                    <g id="Clip-30"></g>
                    <path d="M0.01908,4.74192 C0.01908,7.06752 1.90458,8.95302 4.23018,8.95302 C6.55578,8.95302 8.44038,7.06752 8.44038,4.74192 C8.44038,2.41632 6.55578,0.53082 4.23018,0.53082 C1.90458,0.53082 0.01908,2.41632 0.01908,4.74192" id="Fill-29" fill="#006AFF" mask="url(#mask-14)"></path>
                </g>
                <path d="M89,28.9966698 C89,29.9700709 89.7721005,30.7581914 90.7237387,30.7581914 C91.6762613,30.7581914 92.4483618,29.9700709 92.4483618,28.9966698 L92.4483618,16.4518161 L94.3392563,16.4518161 L94.3392563,50.6329271 C94.3392563,51.9407371 95.375799,53 96.6546734,53 C97.9344322,53 98.9709749,51.9407371 98.9709749,50.6329271 L98.9709749,30.7581914 L100.889286,30.7581914 L100.889286,50.6329271 C100.889286,51.9407371 101.925829,53 103.205588,53 C104.483578,53 105.521005,51.9407371 105.521005,50.6329271 L105.521005,16.4518161 L107.551638,16.4518161 L107.551638,28.9966698 C107.551638,29.9700709 108.323739,30.7581914 109.275377,30.7581914 C110.227899,30.7581914 111,29.9700709 111,28.9966698 L111,14.7607916 C111,14.7607916 110.655075,10.0031468 106.344402,10.0031468 L93.4822513,10.0031468 C93.4822513,10.0031468 89.0857889,9.72115871 89.0857889,14.4959758 C89.0857889,19.270793 89,28.9966698 89,28.9966698" id="Fill-32" fill="#006AFF"></path>
                <g id="Group-36" transform="translate(95.000000, 0.000000)">
                    <mask id="mask-16" fill="white">
                        <use xlink:href="#path-15"></use>
                    </mask>
                    <g id="Clip-35"></g>
                    <path d="M0.18513,4.74192 C0.18513,7.06752 2.07063,8.95302 4.39623,8.95302 C6.72183,8.95302 8.60643,7.06752 8.60643,4.74192 C8.60643,2.41632 6.72183,0.53082 4.39623,0.53082 C2.07063,0.53082 0.18513,2.41632 0.18513,4.74192" id="Fill-34" fill="#006AFF" mask="url(#mask-16)"></path>
                </g>
                <path d="M59,28.9966698 C59,29.9700709 59.7721005,30.7581914 60.7246231,30.7581914 C61.6762613,30.7581914 62.4483618,29.9700709 62.4483618,28.9966698 L62.4483618,16.4518161 L64.3401407,16.4518161 L64.3401407,50.6329271 C64.3401407,51.9407371 65.375799,53 66.6555578,53 C67.9344322,53 68.9709749,51.9407371 68.9709749,50.6329271 L68.9709749,30.7581914 L70.8892864,30.7581914 L70.8892864,50.6329271 C70.8892864,51.9407371 71.9267136,53 73.2055879,53 C74.4844623,53 75.521005,51.9407371 75.521005,50.6329271 L75.521005,16.4518161 L77.5516382,16.4518161 L77.5516382,28.9966698 C77.5516382,29.9700709 78.3237387,30.7581914 79.2762613,30.7581914 C80.2278995,30.7581914 81,29.9700709 81,28.9966698 L81,14.7607916 C81,14.7607916 80.6550754,10.0031468 76.3452864,10.0031468 L63.4831357,10.0031468 C63.4831357,10.0031468 59.0866734,9.72115871 59.0866734,14.4959758 C59.0866734,19.270793 59,28.9966698 59,28.9966698" id="Fill-37" fill="#006AFF"></path>
                <g id="Group-41" transform="translate(66.000000, 0.000000)">
                    <mask id="mask-18" fill="white">
                        <use xlink:href="#path-17"></use>
                    </mask>
                    <g id="Clip-40"></g>
                    <path d="M0.35082,4.74192 C0.35082,7.06752 2.23632,8.95302 4.56192,8.95302 C6.88752,8.95302 8.77212,7.06752 8.77212,4.74192 C8.77212,2.41632 6.88752,0.53082 4.56192,0.53082 C2.23632,0.53082 0.35082,2.41632 0.35082,4.74192" id="Fill-39" fill="#006AFF" mask="url(#mask-18)"></path>
                </g>
                <path d="M30,28.9966698 C30,29.9700709 30.7721005,30.7581914 31.7237387,30.7581914 C32.6762613,30.7581914 33.4483618,29.9700709 33.4483618,28.9966698 L33.4483618,16.4518161 L35.3392563,16.4518161 L35.3392563,50.6329271 C35.3392563,51.9407371 36.375799,53 37.6555578,53 C38.9344322,53 39.9709749,51.9407371 39.9709749,50.6329271 L39.9709749,30.7581914 L41.8892864,30.7581914 L41.8892864,50.6329271 C41.8892864,51.9407371 42.9258291,53 44.2055879,53 C45.4835779,53 46.521005,51.9407371 46.521005,50.6329271 L46.521005,16.4518161 L48.5516382,16.4518161 L48.5516382,28.9966698 C48.5516382,29.9700709 49.3237387,30.7581914 50.2762613,30.7581914 C51.2278995,30.7581914 52,29.9700709 52,28.9966698 L52,14.7607916 C52,14.7607916 51.6550754,10.0031468 47.344402,10.0031468 L34.4822513,10.0031468 C34.4822513,10.0031468 30.0866734,9.72115871 30.0866734,14.4959758 C30.0866734,19.270793 30,28.9966698 30,28.9966698" id="Fill-42" fill="#006AFF"></path>
                <g id="Group-46" transform="translate(36.000000, 0.000000)">
                    <mask id="mask-20" fill="white">
                        <use xlink:href="#path-19"></use>
                    </mask>
                    <g id="Clip-45"></g>
                    <path d="M0.51696,4.74192 C0.51696,7.06752 2.40246,8.95302 4.72806,8.95302 C7.05366,8.95302 8.93826,7.06752 8.93826,4.74192 C8.93826,2.41632 7.05366,0.53082 4.72806,0.53082 C2.40246,0.53082 0.51696,2.41632 0.51696,4.74192" id="Fill-44" fill="#006AFF" mask="url(#mask-20)"></path>
                </g>
                <path d="M0,28.9966698 C0,29.9700709 0.772100503,30.7581914 1.72373869,30.7581914 C2.67626131,30.7581914 3.44836181,29.9700709 3.44836181,28.9966698 L3.44836181,16.4518161 L5.33925628,16.4518161 L5.33925628,50.6329271 C5.33925628,51.9407371 6.37579899,53 7.65467337,53 C8.93443216,53 9.97097487,51.9407371 9.97097487,50.6329271 L9.97097487,30.7581914 L11.8892864,30.7581914 L11.8892864,50.6329271 C11.8892864,51.9407371 12.9258291,53 14.2055879,53 C15.4835779,53 16.521005,51.9407371 16.521005,50.6329271 L16.521005,16.4518161 L18.5516382,16.4518161 L18.5516382,28.9966698 C18.5516382,29.9700709 19.3237387,30.7581914 20.2753769,30.7581914 C21.2278995,30.7581914 22,29.9700709 22,28.9966698 L22,14.7607916 C22,14.7607916 21.6550754,10.0031468 17.344402,10.0031468 L4.48225126,10.0031468 C4.48225126,10.0031468 0.0857889447,9.72115871 0.0857889447,14.4959758 C0.0857889447,19.270793 0,28.9966698 0,28.9966698" id="Fill-47" fill="#006AFF"></path>
                <g id="Group-51" transform="translate(6.000000, 0.000000)">
                    <mask id="mask-22" fill="white">
                        <use xlink:href="#path-21"></use>
                    </mask>
                    <g id="Clip-50"></g>
                    <path d="M0.69,4.74192 C0.69,7.06752 2.59454545,8.95302 4.94363636,8.95302 C7.29272727,8.95302 9.19636364,7.06752 9.19636364,4.74192 C9.19636364,2.41632 7.29272727,0.53082 4.94363636,0.53082 C2.59454545,0.53082 0.69,2.41632 0.69,4.74192" id="Fill-49" fill="#006AFF" mask="url(#mask-22)"></path>
                </g>
                <g id="Group-54" transform="translate(266.000000, 72.000000)">
                    <mask id="mask-24" fill="white">
                        <use xlink:href="#path-23"></use>
                    </mask>
                    <g id="Clip-53"></g>
                    <path d="M0.301211538,19.2089958 C0.301211538,20.1729125 1.07348077,20.954975 2.02532692,20.954975 C2.97805769,20.954975 3.75032692,20.1729125 3.75032692,19.2089958 L3.75032692,6.77482917 L5.64163462,6.77482917 L5.64163462,40.65435 C5.64163462,41.949725 6.67840385,43.0005375 7.95755769,43.0005375 C9.23759615,43.0005375 10.2743654,41.949725 10.2743654,40.65435 L10.2743654,20.954975 L12.1930962,20.954975 L12.1930962,40.65435 C12.1930962,41.949725 13.2298654,43.0005375 14.5090192,43.0005375 C15.7881731,43.0005375 16.8258269,41.949725 16.8258269,40.65435 L16.8258269,6.77482917 L18.8569038,6.77482917 L18.8569038,19.2089958 C18.8569038,20.1729125 19.6291731,20.954975 20.5810192,20.954975 C21.53375,20.954975 22.3060192,20.1729125 22.3060192,19.2089958 L22.3060192,5.09782917 C22.3060192,5.09782917 21.9610192,0.3821625 17.6494038,0.3821625 L4.78444231,0.3821625 C4.78444231,0.3821625 0.387019231,0.103558333 0.387019231,4.83624583 C0.387019231,9.56893333 0.301211538,19.2089958 0.301211538,19.2089958" id="Fill-52" fill="#DCDCDC" mask="url(#mask-24)"></path>
                </g>
                <path d="M273,67 C273,69.209019 274.791172,71 277.000427,71 C279.209683,71 281,69.209019 281,67 C281,64.790981 279.209683,63 277.000427,63 C274.791172,63 273,64.790981 273,67" id="Fill-55" fill="#DCDCDC"></path>
                <g id="Group-59" transform="translate(236.000000, 72.000000)">
                    <mask id="mask-26" fill="white">
                        <use xlink:href="#path-25"></use>
                    </mask>
                    <g id="Clip-58"></g>
                    <path d="M0.464069231,19.2089958 C0.464069231,20.1729125 1.23633846,20.954975 2.18906923,20.954975 C3.14091538,20.954975 3.91318462,20.1729125 3.91318462,19.2089958 L3.91318462,6.77482917 L5.80449231,6.77482917 L5.80449231,40.65435 C5.80449231,41.949725 6.84126154,43.0005375 8.1213,43.0005375 C9.40045385,43.0005375 10.4372231,41.949725 10.4372231,40.65435 L10.4372231,20.954975 L12.3559538,20.954975 L12.3559538,40.65435 C12.3559538,41.949725 13.3936077,43.0005375 14.6727615,43.0005375 C15.9519154,43.0005375 16.9886846,41.949725 16.9886846,40.65435 L16.9886846,6.77482917 L19.0197615,6.77482917 L19.0197615,19.2089958 C19.0197615,20.1729125 19.7920308,20.954975 20.7447615,20.954975 C21.6966077,20.954975 22.4688769,20.1729125 22.4688769,19.2089958 L22.4688769,5.09782917 C22.4688769,5.09782917 22.1238769,0.3821625 17.8131462,0.3821625 L4.94818462,0.3821625 C4.94818462,0.3821625 0.550761538,0.103558333 0.550761538,4.83624583 C0.550761538,9.56893333 0.464069231,19.2089958 0.464069231,19.2089958" id="Fill-57" fill="#DCDCDC" mask="url(#mask-26)"></path>
                </g>
                <path d="M243,67 C243,69.209019 244.791172,71 247.000427,71 C249.209683,71 251,69.209019 251,67 C251,64.790981 249.209683,63 247.000427,63 C244.791172,63 243,64.790981 243,67" id="Fill-60" fill="#DCDCDC"></path>
                <g id="Group-64" transform="translate(206.000000, 72.000000)">
                    <mask id="mask-28" fill="white">
                        <use xlink:href="#path-27"></use>
                    </mask>
                    <g id="Clip-63"></g>
                    <path d="M0.627369231,19.2089958 C0.627369231,20.1729125 1.39963846,20.954975 2.35148462,20.954975 C3.30421538,20.954975 4.07648462,20.1729125 4.07648462,19.2089958 L4.07648462,6.77482917 L5.96779231,6.77482917 L5.96779231,40.65435 C5.96779231,41.949725 7.00456154,43.0005375 8.2846,43.0005375 C9.56375385,43.0005375 10.6005231,41.949725 10.6005231,40.65435 L10.6005231,20.954975 L12.5192538,20.954975 L12.5192538,40.65435 C12.5192538,41.949725 13.5560231,43.0005375 14.8360615,43.0005375 C16.1143308,43.0005375 17.1519846,41.949725 17.1519846,40.65435 L17.1519846,6.77482917 L19.1830615,6.77482917 L19.1830615,19.2089958 C19.1830615,20.1729125 19.9553308,20.954975 20.9071769,20.954975 C21.8599077,20.954975 22.6321769,20.1729125 22.6321769,19.2089958 L22.6321769,5.09782917 C22.6321769,5.09782917 22.2871769,0.3821625 17.9755615,0.3821625 L5.1106,0.3821625 C5.1106,0.3821625 0.714061538,0.103558333 0.714061538,4.83624583 C0.714061538,9.56893333 0.627369231,19.2089958 0.627369231,19.2089958" id="Fill-62" fill="#DCDCDC" mask="url(#mask-28)"></path>
                </g>
                <path d="M214,67 C214,69.209019 215.791172,71 218.000427,71 C220.209683,71 222,69.209019 222,67 C222,64.790981 220.209683,63 218.000427,63 C215.791172,63 214,64.790981 214,67" id="Fill-65" fill="#DCDCDC"></path>
                <g id="Group-69" transform="translate(176.000000, 72.000000)">
                    <mask id="mask-30" fill="white">
                        <use xlink:href="#path-29"></use>
                    </mask>
                    <g id="Clip-68"></g>
                    <path d="M0.790580769,19.2089958 C0.790580769,20.1729125 1.56285,20.954975 2.51469615,20.954975 C3.46742692,20.954975 4.23969615,20.1729125 4.23969615,19.2089958 L4.23969615,6.77482917 L6.13100385,6.77482917 L6.13100385,40.65435 C6.13100385,41.949725 7.16777308,43.0005375 8.44692692,43.0005375 C9.72696538,43.0005375 10.7637346,41.949725 10.7637346,40.65435 L10.7637346,20.954975 L12.6824654,20.954975 L12.6824654,40.65435 C12.6824654,41.949725 13.7192346,43.0005375 14.9983885,43.0005375 C16.2775423,43.0005375 17.3151962,41.949725 17.3151962,40.65435 L17.3151962,6.77482917 L19.3462731,6.77482917 L19.3462731,19.2089958 C19.3462731,20.1729125 20.1185423,20.954975 21.0703885,20.954975 C22.0231192,20.954975 22.7953885,20.1729125 22.7953885,19.2089958 L22.7953885,5.09782917 C22.7953885,5.09782917 22.4503885,0.3821625 18.1387731,0.3821625 L5.27381154,0.3821625 C5.27381154,0.3821625 0.876388462,0.103558333 0.876388462,4.83624583 C0.876388462,9.56893333 0.790580769,19.2089958 0.790580769,19.2089958" id="Fill-67" fill="#DCDCDC" mask="url(#mask-30)"></path>
                </g>
                <path d="M184,67 C184,69.209019 185.791172,71 188.000427,71 C190.209683,71 192,69.209019 192,67 C192,64.790981 190.209683,63 188.000427,63 C185.791172,63 184,64.790981 184,67" id="Fill-70" fill="#DCDCDC"></path>
                <g id="Group-74" transform="translate(148.000000, 72.000000)">
                    <mask id="mask-32" fill="white">
                        <use xlink:href="#path-31"></use>
                    </mask>
                    <g id="Clip-73"></g>
                    <path d="M0.071576,19.2089958 C0.071576,20.1729125 0.874736,20.954975 1.865576,20.954975 C2.855496,20.954975 3.658656,20.1729125 3.658656,19.2089958 L3.658656,6.77482917 L5.625616,6.77482917 L5.625616,40.65435 C5.625616,41.949725 6.703856,43.0005375 8.035096,43.0005375 C9.365416,43.0005375 10.443656,41.949725 10.443656,40.65435 L10.443656,20.954975 L12.439136,20.954975 L12.439136,40.65435 C12.439136,41.949725 13.518296,43.0005375 14.848616,43.0005375 C16.178936,43.0005375 17.257176,41.949725 17.257176,40.65435 L17.257176,6.77482917 L19.369496,6.77482917 L19.369496,19.2089958 C19.369496,20.1729125 20.172656,20.954975 21.163496,20.954975 C22.153416,20.954975 22.956576,20.1729125 22.956576,19.2089958 L22.956576,5.09782917 C22.956576,5.09782917 22.597776,0.3821625 18.114616,0.3821625 L4.735056,0.3821625 C4.735056,0.3821625 0.161736,0.103558333 0.161736,4.83624583 C0.161736,9.56893333 0.071576,19.2089958 0.071576,19.2089958" id="Fill-72" fill="#DCDCDC" mask="url(#mask-32)"></path>
                </g>
                <path d="M155,67 C155,69.209019 156.791172,71 159.000427,71 C161.209683,71 163,69.209019 163,67 C163,64.790981 161.209683,63 159.000427,63 C156.791172,63 155,64.790981 155,67" id="Fill-75" fill="#DCDCDC"></path>
                <g id="Group-79" transform="translate(118.000000, 72.000000)">
                    <mask id="mask-34" fill="white">
                        <use xlink:href="#path-33"></use>
                    </mask>
                    <g id="Clip-78"></g>
                    <path d="M0.232123077,19.2089958 C0.232123077,20.1729125 1.00439231,20.954975 1.95623846,20.954975 C2.90896923,20.954975 3.68123846,20.1729125 3.68123846,19.2089958 L3.68123846,6.77482917 L5.57254615,6.77482917 L5.57254615,40.65435 C5.57254615,41.949725 6.60931538,43.0005375 7.88935385,43.0005375 C9.16850769,43.0005375 10.2052769,41.949725 10.2052769,40.65435 L10.2052769,20.954975 L12.1240077,20.954975 L12.1240077,40.65435 C12.1240077,41.949725 13.1607769,43.0005375 14.4408154,43.0005375 C15.7190846,43.0005375 16.7567385,41.949725 16.7567385,40.65435 L16.7567385,6.77482917 L18.7878154,6.77482917 L18.7878154,19.2089958 C18.7878154,20.1729125 19.5600846,20.954975 20.5119308,20.954975 C21.4646615,20.954975 22.2369308,20.1729125 22.2369308,19.2089958 L22.2369308,5.09782917 C22.2369308,5.09782917 21.8919308,0.3821625 17.5803154,0.3821625 L4.71535385,0.3821625 C4.71535385,0.3821625 0.318815385,0.103558333 0.318815385,4.83624583 C0.318815385,9.56893333 0.232123077,19.2089958 0.232123077,19.2089958" id="Fill-77" fill="#DCDCDC" mask="url(#mask-34)"></path>
                </g>
                <path d="M125,67 C125,69.209019 126.791172,71 129.000427,71 C131.209683,71 133,69.209019 133,67 C133,64.790981 131.209683,63 129.000427,63 C126.791172,63 125,64.790981 125,67" id="Fill-80" fill="#DCDCDC"></path>
                <g id="Group-84" transform="translate(88.000000, 72.000000)">
                    <mask id="mask-36" fill="white">
                        <use xlink:href="#path-35"></use>
                    </mask>
                    <g id="Clip-83"></g>
                    <path d="M0.395334615,19.2089958 C0.395334615,20.1729125 1.16760385,20.954975 2.11945,20.954975 C3.07218077,20.954975 3.84445,20.1729125 3.84445,19.2089958 L3.84445,6.77482917 L5.73575769,6.77482917 L5.73575769,40.65435 C5.73575769,41.949725 6.77252692,43.0005375 8.05168077,43.0005375 C9.33171923,43.0005375 10.3684885,41.949725 10.3684885,40.65435 L10.3684885,20.954975 L12.2872192,20.954975 L12.2872192,40.65435 C12.2872192,41.949725 13.3239885,43.0005375 14.6040269,43.0005375 C15.8822962,43.0005375 16.91995,41.949725 16.91995,40.65435 L16.91995,6.77482917 L18.9510269,6.77482917 L18.9510269,19.2089958 C18.9510269,20.1729125 19.7232962,20.954975 20.6751423,20.954975 C21.6278731,20.954975 22.4001423,20.1729125 22.4001423,19.2089958 L22.4001423,5.09782917 C22.4001423,5.09782917 22.0551423,0.3821625 17.7435269,0.3821625 L4.87856538,0.3821625 C4.87856538,0.3821625 0.481142308,0.103558333 0.481142308,4.83624583 C0.481142308,9.56893333 0.395334615,19.2089958 0.395334615,19.2089958" id="Fill-82" fill="#DCDCDC" mask="url(#mask-36)"></path>
                </g>
                <path d="M96,67 C96,69.209019 97.7911724,71 100.000427,71 C102.209683,71 104,69.209019 104,67 C104,64.790981 102.209683,63 100.000427,63 C97.7911724,63 96,64.790981 96,67" id="Fill-85" fill="#DCDCDC"></path>
                <g id="Group-89" transform="translate(59.000000, 72.000000)">
                    <mask id="mask-38" fill="white">
                        <use xlink:href="#path-37"></use>
                    </mask>
                    <g id="Clip-88"></g>
                    <path d="M0.558192308,19.2089958 C0.558192308,20.1729125 1.33046154,20.954975 2.28319231,20.954975 C3.23503846,20.954975 4.00730769,20.1729125 4.00730769,19.2089958 L4.00730769,6.77482917 L5.8995,6.77482917 L5.8995,40.65435 C5.8995,41.949725 6.93538462,43.0005375 8.21542308,43.0005375 C9.49457692,43.0005375 10.5313462,41.949725 10.5313462,40.65435 L10.5313462,20.954975 L12.4500769,20.954975 L12.4500769,40.65435 C12.4500769,41.949725 13.4877308,43.0005375 14.7668846,43.0005375 C16.0460385,43.0005375 17.0828077,41.949725 17.0828077,40.65435 L17.0828077,6.77482917 L19.1138846,6.77482917 L19.1138846,19.2089958 C19.1138846,20.1729125 19.8861538,20.954975 20.8388846,20.954975 C21.7907308,20.954975 22.563,20.1729125 22.563,19.2089958 L22.563,5.09782917 C22.563,5.09782917 22.218,0.3821625 17.9072692,0.3821625 L5.04230769,0.3821625 C5.04230769,0.3821625 0.644884615,0.103558333 0.644884615,4.83624583 C0.644884615,9.56893333 0.558192308,19.2089958 0.558192308,19.2089958" id="Fill-87" fill="#DCDCDC" mask="url(#mask-38)"></path>
                </g>
                <path d="M66,67 C66,69.209019 67.7911724,71 70.0004275,71 C72.2096826,71 74,69.209019 74,67 C74,64.790981 72.2096826,63 70.0004275,63 C67.7911724,63 66,64.790981 66,67" id="Fill-90" fill="#DCDCDC"></path>
                <g id="Group-94" transform="translate(29.000000, 72.000000)">
                    <mask id="mask-40" fill="white">
                        <use xlink:href="#path-39"></use>
                    </mask>
                    <g id="Clip-93"></g>
                    <path d="M0.721492308,19.2089958 C0.721492308,20.1729125 1.49376154,20.954975 2.44560769,20.954975 C3.39833846,20.954975 4.17060769,20.1729125 4.17060769,19.2089958 L4.17060769,6.77482917 L6.06191538,6.77482917 L6.06191538,40.65435 C6.06191538,41.949725 7.09868462,43.0005375 8.37872308,43.0005375 C9.65787692,43.0005375 10.6946462,41.949725 10.6946462,40.65435 L10.6946462,20.954975 L12.6133769,20.954975 L12.6133769,40.65435 C12.6133769,41.949725 13.6501462,43.0005375 14.9301846,43.0005375 C16.2084538,43.0005375 17.2461077,41.949725 17.2461077,40.65435 L17.2461077,6.77482917 L19.2771846,6.77482917 L19.2771846,19.2089958 C19.2771846,20.1729125 20.0494538,20.954975 21.0021846,20.954975 C21.9540308,20.954975 22.7263,20.1729125 22.7263,19.2089958 L22.7263,5.09782917 C22.7263,5.09782917 22.3813,0.3821625 18.0696846,0.3821625 L5.20472308,0.3821625 C5.20472308,0.3821625 0.808184615,0.103558333 0.808184615,4.83624583 C0.808184615,9.56893333 0.721492308,19.2089958 0.721492308,19.2089958" id="Fill-92" fill="#DCDCDC" mask="url(#mask-40)"></path>
                </g>
                <path d="M37,67 C37,69.209019 38.7911724,71 41.0004275,71 C43.2096826,71 45,69.209019 45,67 C45,64.790981 43.2096826,63 41.0004275,63 C38.7911724,63 37,64.790981 37,67" id="Fill-95" fill="#DCDCDC"></path>
                <g id="Group-99" transform="translate(0.000000, 72.000000)">
                    <mask id="mask-42" fill="white">
                        <use xlink:href="#path-41"></use>
                    </mask>
                    <g id="Clip-98"></g>
                    <path d="M0.000184,19.2089958 C0.000184,20.1729125 0.803344,20.954975 1.793264,20.954975 C2.784104,20.954975 3.587264,20.1729125 3.587264,19.2089958 L3.587264,6.77482917 L5.554224,6.77482917 L5.554224,40.65435 C5.554224,41.949725 6.632464,43.0005375 7.962784,43.0005375 C9.294024,43.0005375 10.372264,41.949725 10.372264,40.65435 L10.372264,20.954975 L12.367744,20.954975 L12.367744,40.65435 C12.367744,41.949725 13.445984,43.0005375 14.777224,43.0005375 C16.106624,43.0005375 17.185784,41.949725 17.185784,40.65435 L17.185784,6.77482917 L19.298104,6.77482917 L19.298104,19.2089958 C19.298104,20.1729125 20.101264,20.954975 21.091184,20.954975 C22.082024,20.954975 22.885184,20.1729125 22.885184,19.2089958 L22.885184,5.09782917 C22.885184,5.09782917 22.526384,0.3821625 18.042304,0.3821625 L4.662744,0.3821625 C4.662744,0.3821625 0.089424,0.103558333 0.089424,4.83624583 C0.089424,9.56893333 0.000184,19.2089958 0.000184,19.2089958" id="Fill-97" fill="#DCDCDC" mask="url(#mask-42)"></path>
                </g>
                <path d="M7,67 C7,69.209019 8.79117238,71 11.0004275,71 C13.2096826,71 15,69.209019 15,67 C15,64.790981 13.2096826,63 11.0004275,63 C8.79117238,63 7,64.790981 7,67" id="Fill-100" fill="#DCDCDC"></path>
            </g>
        </g>
    </g>
</svg>