<?xml version="1.0" encoding="UTF-8"?>
<svg width="299px" height="158px" viewBox="0 0 299 158" version="1.1" xmlns="http://www.w3.org/2000/svg" xmlns:xlink="http://www.w3.org/1999/xlink">
    <!-- Generator: Sketch 50.2 (55047) - http://www.bohemiancoding.com/sketch -->
    <title>Group 21</title>
    <desc>Created with Sketch.</desc>
    <defs></defs>
    <g id="Design" stroke="none" stroke-width="1" fill="none" fill-rule="evenodd">
        <g id="HR_option_5a" transform="translate(-36.000000, -1024.000000)">
            <g id="Group-21" transform="translate(36.000000, 1025.000000)">
                <polygon id="Fill-1" fill="#000000" points="291 80 291 84.2659814 291 88 299 84.2659814"></polygon>
                <g id="Group-20">
                    <path d="M291.306829,71.6754899 L270.184136,71.6754899 C263.461445,71.6754899 257.961062,77.1522341 257.961062,83.8460326 L257.961062,101.623544 C257.961062,108.317343 252.460679,113.794087 245.737989,113.794087 L238.443258,113.794087 C231.720568,113.794087 226.220185,108.317343 226.220185,101.623544 L226.220185,36.5111411 C226.220185,29.8173426 220.719801,24.3405984 213.997111,24.3405984 L206.702381,24.3405984 C199.97969,24.3405984 194.479307,29.8173426 194.479307,36.5111411 L194.479307,124.139048 C194.479307,130.832847 188.978924,136.309591 182.256233,136.309591 L174.893054,136.309591 C168.170363,136.309591 162.66998,130.832847 162.66998,124.139048 L162.66998,12.1700558 C162.66998,5.47625736 157.169597,-0.000486821704 150.446906,-0.000486821704 L143.152176,-0.000486821704 C136.429486,-0.000486821704 130.929102,5.47625736 130.929102,12.1700558 L130.929102,144.220443 C130.929102,150.914242 125.428719,156.390986 118.706029,156.390986 L111.411298,156.390986 C104.688608,156.390986 99.1882248,150.914242 99.1882248,144.220443 L99.1882248,84.4496915 C99.1882248,77.755893 93.6878417,72.2791488 86.9651512,72.2791488 L65.7740084,72.2791488" id="Stroke-2" stroke="#000000" stroke-linecap="round" stroke-linejoin="round" transform="translate(178.540419, 78.195250) scale(-1, -1) translate(-178.540419, -78.195250) "></path>
                    <polygon id="Fill-14" fill="#95C0FF" points="32.7483626 115.639171 0.154314415 95.3557442 21.8502701 81.8914729 54.4443183 102.174899"></polygon>
                    <polygon id="Fill-16" fill="#6BA4FF" points="32.7483626 98.6004109 0.154314415 78.3169845 21.8502701 64.8527132 54.4443183 85.1361395"></polygon>
                    <polygon id="Fill-18" fill="#006AFF" points="32.7483626 81.5616512 0.154314415 61.2782248 21.8502701 47.8139535 54.4443183 68.0973798"></polygon>
                </g>
            </g>
        </g>
    </g>
</svg>