<?xml version="1.0" encoding="UTF-8"?>
<svg width="301px" height="57px" viewBox="0 0 301 57" version="1.1" xmlns="http://www.w3.org/2000/svg" xmlns:xlink="http://www.w3.org/1999/xlink">
    <!-- Generator: Sketch 50.2 (55047) - http://www.bohemiancoding.com/sketch -->
    <title>Group 22</title>
    <desc>Created with Sketch.</desc>
    <defs>
        <polygon id="path-1" points="13.693 13.041 0.037 13.041 11.085 21.068 6.865 34.054 17.913 26.028 28.96 34.054 24.74 21.068 35.788 13.041 22.132 13.041 17.913 0.054"></polygon>
        <path d="M12.301,0.056 C5.956,0.056 0.845,5.52 0.776,12.004 L0.775,12.004 C0.692,19.853 12.08,34.055 12.08,34.055 C14.456,30.428 23.747,18.285 23.81,12.248 C23.88,5.723 18.821,0.123 12.42,0.056 C12.38,0.056 12.341,0.056 12.301,0.056 Z M8.011,12.829 C8.036,10.468 9.97,8.575 12.329,8.601 C14.69,8.626 16.583,10.559 16.558,12.918 C16.533,15.264 14.626,17.146 12.287,17.146 C12.271,17.146 12.255,17.146 12.239,17.146 C9.879,17.121 7.987,15.189 8.011,12.829 Z" id="path-3"></path>
    </defs>
    <g id="Design" stroke="none" stroke-width="1" fill="none" fill-rule="evenodd">
        <g id="HR_option_5a" transform="translate(-42.000000, -1039.000000)">
            <g id="Group-22" transform="translate(43.000000, 1040.000000)">
                <path d="M0.0003,54.5667 L299.1083,54.5667" id="Stroke-1" stroke="#000000" stroke-linecap="round" stroke-linejoin="round"></path>
                <path d="M18.4607,24.5061 L27.5187,33.5641" id="Stroke-2" stroke="#000000" stroke-width="2" stroke-linecap="round" stroke-linejoin="round"></path>
                <path d="M21.6243,16.8586 C21.6243,10.8866 16.7843,6.0456 10.8123,6.0456 C4.8403,6.0456 0.0003,10.8866 0.0003,16.8586 C0.0003,22.8286 4.8403,27.6706 10.8123,27.6706 C16.7843,27.6706 21.6243,22.8286 21.6243,16.8586 Z" id="Stroke-3" stroke="#000000" stroke-width="2" stroke-linecap="round" stroke-linejoin="round"></path>
                <g id="Group-7" transform="translate(83.000000, 2.000000)">
                    <mask id="mask-2" fill="white">
                        <use xlink:href="#path-1"></use>
                    </mask>
                    <g id="Clip-6"></g>
                    <polygon id="Fill-5" fill="#95C0FF" mask="url(#mask-2)" points="-4.963 39.054 40.787 39.054 40.787 -4.946 -4.963 -4.946"></polygon>
                </g>
                <g id="Group-18" transform="translate(179.000000, 0.000000)" stroke-linejoin="round">
                    <path d="M9.8728,35.4417 L9.8728,4.0557" id="Stroke-8" stroke="#006AFF" stroke-width="6"></path>
                    <path d="M22.3475,35.4417 L22.3475,4.0557" id="Stroke-10" stroke="#006AFF" stroke-width="6"></path>
                    <path d="M0.9075,13.3098 L31.3125,13.3098" id="Stroke-12" stroke="#006AFF" stroke-width="6"></path>
                    <path d="M0.9075,26.1877 L31.3125,26.1877" id="Stroke-14" stroke="#006AFF" stroke-width="6"></path>
                    <path d="M43.9998,0.0002 L43.9998,38.5142" id="Stroke-16" stroke="#000000" stroke-width="2" stroke-linecap="round"></path>
                </g>
                <g id="Group-21" transform="translate(136.000000, 3.000000)">
                    <mask id="mask-4" fill="white">
                        <use xlink:href="#path-3"></use>
                    </mask>
                    <g id="Clip-20"></g>
                    <polygon id="Fill-19" fill="#6BA4FF" mask="url(#mask-4)" points="-4.226 39.055 28.811 39.055 28.811 -4.945 -4.226 -4.945"></polygon>
                </g>
            </g>
        </g>
    </g>
</svg>