<?xml version="1.0" encoding="UTF-8"?>
<svg width="61px" height="69px" viewBox="0 0 61 69" version="1.1" xmlns="http://www.w3.org/2000/svg" xmlns:xlink="http://www.w3.org/1999/xlink">
    <!-- Generator: Sketch 50.2 (55047) - http://www.bohemiancoding.com/sketch -->
    <title>watson_picto/user&amp;HR&amp;groups/HR_02</title>
    <desc>Created with Sketch.</desc>
    <defs></defs>
    <g id="Design" stroke="none" stroke-width="1" fill="none" fill-rule="evenodd" stroke-linecap="round" stroke-linejoin="round">
        <g id="HR_option_5e" transform="translate(-397.000000, -4538.000000)" stroke="#000000">
            <g id="Group-5" transform="translate(0.000000, 4144.000000)">
                <g id="Group-2">
                    <g id="Group-20" transform="translate(47.000000, 106.000000)">
                        <g id="Group-4" transform="translate(350.000000, 0.000000)">
                            <g id="watson_picto/user&amp;HR&amp;groups/HR_02" transform="translate(0.000000, 287.000000)">
                                <g id="watson_picto-user&amp;HR&amp;groups-HR_02" transform="translate(0.641379, 0.645455)">
                                    <path d="M36.209069,6.26069394 C49.3915517,9.14372424 59.2645172,20.9512394 59.2645172,35.0823909 C59.2645172,51.3715121 46.1440345,64.5753606 29.9577586,64.5753606" id="Stroke-13" stroke-width="0.866"></path>
                                    <path d="M23.7055931,63.8391121 C10.5231103,60.9582333 0.650144828,49.1485667 0.650144828,35.0174152 C0.650144828,18.7304455 13.7706276,5.52444545 29.9569034,5.52444545" id="Stroke-15" stroke-width="0.866"></path>
                                    <polyline id="Stroke-17" stroke-width="0.866" points="25.3883586 0.932466667 29.9528414 5.52595152 25.3883586 10.1194364"></polyline>
                                    <polyline id="Stroke-19" stroke-width="0.866" points="34.5216 69.1694909 29.9571172 64.5760061 34.5216 59.9803697"></polyline>
                                    <path d="M41.0668759,53.6970848 L41.0668759,46.2098121 C41.0668759,40.9386 37.434531,36.5279939 32.5514966,35.3640242 C34.7621172,34.3743273 36.3035655,32.1475091 36.3035655,29.5570848 C36.3035655,26.0479636 33.4772207,23.2015091 29.9881172,23.2015091 C26.5011517,23.2015091 23.672669,26.0479636 23.672669,29.5570848 C23.672669,32.1475091 25.2162552,34.3743273 27.4247379,35.3640242 C22.5438414,36.5279939 18.9093586,40.9386 18.9093586,46.2098121 L18.9093586,53.6970848" id="Stroke-21" stroke-width="0.866"></path>
                                    <path d="M49.7637655,46.9105606 L49.7637655,39.4232879 C49.7637655,34.1520758 46.1314207,29.7414697 41.2483862,28.5775 C43.4590069,27.587803 45.0004552,25.3609848 45.0004552,22.7705606 C45.0004552,19.2614394 42.1741103,16.4149848 38.6850069,16.4149848 C35.1980414,16.4149848 32.3695586,19.2614394 32.3695586,22.7705606" id="Stroke-23" stroke-width="0.866"></path>
                                    <path d="M10.2135379,46.9105606 L10.2135379,39.4232879 C10.2135379,34.1520758 13.8458828,29.7414697 18.7289172,28.5775 C16.5182966,27.587803 14.9768483,25.3609848 14.9768483,22.7705606 C14.9768483,19.2614394 17.8031931,16.4149848 21.2922966,16.4149848 C24.7792621,16.4149848 27.6077448,19.2614394 27.6077448,22.7705606" id="Stroke-25" stroke-width="0.866"></path>
                                </g>
                            </g>
                        </g>
                    </g>
                </g>
            </g>
        </g>
    </g>
</svg>