<?xml version="1.0" encoding="UTF-8"?>
<svg width="60px" height="55px" viewBox="0 0 60 55" version="1.1" xmlns="http://www.w3.org/2000/svg" xmlns:xlink="http://www.w3.org/1999/xlink">
    <!-- Generator: Sketch 50.2 (55047) - http://www.bohemiancoding.com/sketch -->
    <title>watson_picto/user&amp;HR&amp;groups/group</title>
    <desc>Created with Sketch.</desc>
    <defs></defs>
    <g id="Design" stroke="none" stroke-width="1" fill="none" fill-rule="evenodd" stroke-linecap="round" stroke-linejoin="round">
        <g id="HR_option_5e" transform="translate(-397.000000, -3456.000000)" stroke="#000000">
            <g id="Group-5" transform="translate(0.000000, 3278.000000)">
                <g id="Group-2">
                    <g id="Group-20" transform="translate(48.000000, 99.000000)">
                        <g id="Group-4" transform="translate(349.000000, 79.000000)">
                            <g id="watson_picto/user&amp;HR&amp;groups/group">
                                <g id="watson_picto-user&amp;HR&amp;groups-group" transform="translate(0.363636, 0.733333)">
                                    <path d="M45.7723636,53.4402 L45.7723636,42.4988667 C45.7723636,34.8025333 40.476,28.3547 33.3578182,26.6552 C36.5778182,25.2105333 38.8287273,21.9600333 38.8287273,18.1742 C38.8287273,13.0463667 34.7050909,8.8902 29.6196364,8.8902 C24.5341818,8.8902 20.4123636,13.0463667 20.4123636,18.1742 C20.4123636,21.9600333 22.6614545,25.2105333 25.8832727,26.6552 C18.7650909,28.3547 13.4669091,34.8025333 13.4669091,42.4988667 L13.4669091,53.4402" id="Stroke-1" stroke-width="0.866"></path>
                                    <path d="M58.4525455,44.6458833 L58.4525455,33.70455 C58.4525455,26.0082167 53.1561818,19.5603833 46.038,17.8608833 C49.258,16.4162167 51.5089091,13.1638833 51.5089091,9.37988333 C51.5089091,4.25205 47.3852727,0.09405 42.2998182,0.09405 C37.2143636,0.09405 33.0925455,4.25205 33.0925455,9.37988333" id="Stroke-3" stroke-width="0.866"></path>
                                    <path d="M0.787454545,44.6458833 L0.787454545,33.70455 C0.787454545,26.0082167 6.08381818,19.5603833 13.202,17.8608833 C9.982,16.4162167 7.73109091,13.1638833 7.73109091,9.37988333 C7.73109091,4.25205 11.8547273,0.09405 16.9401818,0.09405 C22.0256364,0.09405 26.1474545,4.25205 26.1474545,9.37988333" id="Stroke-5" stroke-width="0.866"></path>
                                </g>
                            </g>
                        </g>
                    </g>
                </g>
            </g>
        </g>
    </g>
</svg>