<?xml version="1.0" encoding="UTF-8"?>
<svg width="60px" height="58px" viewBox="0 0 60 58" version="1.1" xmlns="http://www.w3.org/2000/svg" xmlns:xlink="http://www.w3.org/1999/xlink">
    <!-- Generator: Sketch 50.2 (55047) - http://www.bohemiancoding.com/sketch -->
    <title>watson_picto/Watson_APIs/tone_analyzer</title>
    <desc>Created with Sketch.</desc>
    <defs></defs>
    <g id="Design" stroke="none" stroke-width="1" fill="none" fill-rule="evenodd" stroke-linecap="round" stroke-linejoin="round">
        <g id="HR_option_5e" transform="translate(-397.000000, -2873.000000)" stroke="#000000">
            <g id="Group-5" transform="translate(-2.000000, 2440.000000)">
                <g id="Group-2">
                    <g id="Group-20" transform="translate(49.000000, 102.000000)">
                        <g id="Group-4">
                            <g id="watson_picto/Watson_APIs/tone_analyzer" transform="translate(350.000000, 331.000000)">
                                <g id="watson_picto-user&amp;HR&amp;groups-user" transform="translate(0.909091, 0.878788)">
                                    <path d="M57.6673026,55.7292286 C57.6473026,42.9692286 47.5527571,32.2392286 35.2400299,29.4376528 C40.8054844,27.0332892 44.6873026,21.6392892 44.6763935,15.3665013 C44.6636662,6.86686496 37.5236662,-0.0122865535 28.7309389,1.64768212e-05 C19.9363935,0.0140770829 12.8182117,6.91607708 12.8327571,15.4139559 C12.841848,21.6867437 16.7400299,27.0684407 22.3145753,29.4569862 C10.0109389,32.2937134 -0.0199701443,42.9850468 2.98557113e-05,55.7450468" id="Stroke-69" stroke-width="0.866"></path>
                                    <path d="M22.2527804,49.0478845 C21.4236895,48.2499451 21.0073259,47.20243 21.0000531,46.1549148 C20.9945986,45.0950966 21.409144,44.0335209 22.2436895,43.225036 C23.0727804,42.4200663 24.1582349,42.0158239 25.2455077,42.0123088 C26.3382349,42.0087936 27.4327804,42.4112785 28.2673259,43.2144906 L29.3855077,44.2918845 L30.4982349,43.212733 C31.329144,42.4060057 32.4182349,42.0017633 33.509144,42.0000057 C34.6000531,41.9982482 35.689144,42.400733 36.5236895,43.2021875 C37.3764168,44.024733 37.7927804,45.1091572 37.7745986,46.1865512 C37.7582349,47.214733 37.3436895,48.2393997 36.5327804,49.025036 L29.4036895,55.9393391 L22.2527804,49.0478845 Z" id="Stroke-71" stroke-width="0.865"></path>
                                </g>
                            </g>
                        </g>
                    </g>
                </g>
            </g>
        </g>
    </g>
</svg>