<?xml version="1.0" encoding="UTF-8"?>
<svg width="60px" height="57px" viewBox="0 0 60 57" version="1.1" xmlns="http://www.w3.org/2000/svg" xmlns:xlink="http://www.w3.org/1999/xlink">
    <!-- Generator: Sketch 50.2 (55047) - http://www.bohemiancoding.com/sketch -->
    <title>watson_picto/Watson_APIs/tone_analyzer</title>
    <desc>Created with Sketch.</desc>
    <defs></defs>
    <g id="Design" stroke="none" stroke-width="1" fill="none" fill-rule="evenodd">
        <g id="HR_option_5e" transform="translate(-397.000000, -2624.000000)" fill-rule="nonzero">
            <g id="Group-5" transform="translate(-2.000000, 2440.000000)">
                <g id="Group-2">
                    <g id="Group-20" transform="translate(49.000000, 102.000000)">
                        <g id="Group-4">
                            <g id="watson_picto/Watson_APIs/tone_analyzer" transform="translate(351.000000, 82.000000)">
                                <g id="watson_picto-Watson_APIs-conversation" transform="translate(0.000000, 0.878788)">
                                    <path d="M28.8854545,30 C29.9272727,30 30.7709091,30.8155152 30.7709091,31.8226061 C30.7709091,32.829697 29.9272727,33.6469697 28.8854545,33.6469697 C27.8454545,33.6469697 27,32.829697 27,31.8226061 C27,30.8155152 27.8454545,30 28.8854545,30 Z" id="Fill-166" fill="#000000"></path>
                                    <path d="M19.8854545,30 C20.9272727,30 21.7709091,30.8155152 21.7709091,31.8226061 C21.7709091,32.829697 20.9272727,33.6469697 19.8854545,33.6469697 C18.8436364,33.6469697 18,32.829697 18,31.8226061 C18,30.8155152 18.8436364,30 19.8854545,30 Z" id="Fill-167" fill="#000000"></path>
                                    <path d="M11.8854545,30 C12.9272727,30 13.7709091,30.8155152 13.7709091,31.8226061 C13.7709091,32.829697 12.9272727,33.6452121 11.8854545,33.6452121 C10.8436364,33.6452121 10,32.829697 10,31.8226061 C10,30.8155152 10.8436364,30 11.8854545,30 Z" id="Fill-168" fill="#000000"></path>
                                    <path d="M37.3672727,9 C36.6127273,9 36,9.59230303 36,10.3234545 C36,11.0546061 36.6127273,11.6469091 37.3672727,11.6469091 C38.1236364,11.6469091 38.7363636,11.0546061 38.7363636,10.3234545 C38.7363636,9.59230303 38.1236364,9 37.3672727,9 Z" id="Fill-169" fill="#000000"></path>
                                    <path d="M43.3690909,9 C42.6127273,9 42,9.59230303 42,10.3234545 C42,11.0546061 42.6127273,11.6469091 43.3690909,11.6469091 C44.1236364,11.6469091 44.7363636,11.0546061 44.7363636,10.3234545 C44.7363636,9.59230303 44.1236364,9 43.3690909,9 Z" id="Fill-170" fill="#000000"></path>
                                    <path d="M50.3672727,9 C49.6127273,9 49,9.59230303 49,10.3234545 C49,11.0546061 49.6127273,11.6469091 50.3672727,11.6469091 C51.1236364,11.6469091 51.7363636,11.0546061 51.7363636,10.3234545 C51.7363636,9.59230303 51.1236364,9 50.3672727,9 Z" id="Fill-171" fill="#000000"></path>
                                    <path d="M21.0890909,45.8049091 L29.9363636,45.8049091 C35.3018182,45.8049091 39.7309091,41.5621212 39.7309091,36.3755152 L39.7309091,26.4293939 C39.7309091,21.2427879 35.3018182,17 29.9363636,17 L9.71818182,17 C4.26727273,17 0,21.2427879 0,26.4293939 L0,36.3755152 C0,41.5621212 4.35272727,45.8049091 9.71818182,45.8049091 L14.1309091,45.8049091 L19.8654545,55.4065455" id="Stroke-172" stroke="#000000" stroke-width="0.866" stroke-linecap="round"></path>
                                    <path d="M29,16.923697 L29,6.82290909 C29,3.07048485 32.1763636,0 36.06,0 L50.7727273,0 C54.6545455,0 57.8309091,3.07048485 57.8309091,6.82290909 L57.8309091,13.9621818 C57.8309091,17.7146061 54.6545455,20.7868485 50.7727273,20.7868485 L49.88,20.7868485 L45.6472727,27.8698788" id="Stroke-173" stroke="#000000" stroke-width="0.866" stroke-linecap="round"></path>
                                    <path d="M44.3127273,20 L38,20" id="Stroke-174" stroke="#000000" stroke-width="0.866" stroke-linecap="round"></path>
                                </g>
                            </g>
                        </g>
                    </g>
                </g>
            </g>
        </g>
    </g>
</svg>