<svg xmlns="http://www.w3.org/2000/svg" xmlns:xlink="http://www.w3.org/1999/xlink" viewBox="0 0 292.73 663.45"><defs><mask id="mask" x="0" y="147.09" width="292.73" height="516.36" maskUnits="userSpaceOnUse"><g id="mask-2"><polygon id="path-1" points="0 147.09 292.73 147.09 292.73 663.45 0 663.45 0 147.09" style="fill:#fff"/></g></mask><mask id="mask-2-2" x="84.04" y="0" width="124.45" height="124.29" maskUnits="userSpaceOnUse"><g id="mask-4"><polygon id="path-3" points="84.04 0 208.5 0 208.5 124.29 84.04 124.29 84.04 0" style="fill:#fff"/></g></mask></defs><title>Asset 1</title><g id="Layer_2" data-name="Layer 2"><g id="Layer_1-2" data-name="Layer 1"><g id="Group-14"><g id="Group-3"><g style="mask:url(#mask)"><path id="Fill-1" d="M72.88,218.65c0-6.7,0-6.7-6.87-6.7-9.73,0-9.67-1.42-9.68,9.89-.06,51.83.1,103.66-.2,155.49a42.3,42.3,0,0,1-4,17.71c-5.67,11.65-17.78,16.8-30.15,14.16C10.63,406.79,1.28,396.06.09,384.09c-.16-1.65-.08-116,0-171.49,0-23.65,9.25-42.64,29-56,9.77-6.64,20.78-9.43,32.61-9.42,56.66,0,113.33-.15,170,0,29,.08,54.17,21.46,59.53,50.31a82.86,82.86,0,0,1,1.48,14.88q.15,83.25,0,166.49c0,15.07-8.7,27.19-21.34,30.24-17.73,4.26-34.06-8.76-35-28-.11-2.16-.05-4.33-.05-6.5q0-78,0-156c0-6.65,0-6.65-6.43-6.67-10.2,0-10.2,0-10.2,10.42q0,201.24-.08,402.49a56,56,0,0,1-1.94,15.76c-4.52,15.18-18.65,24.43-33.52,22.62S157,648,156.14,632.46c-.14-2.66-.09-5.33-.09-8,0-66.33,0-131.66.1-198,0-4.68-.86-7.24-7-7.24-13.65.29-12.65-.94-12.65,12.46,0,65.16,0,131.33,0,196.5,0,9-2.26,17.22-8.21,24-8.24,9.44-18.65,13.34-31,10.14-13.05-3.39-20.53-12.46-23.49-25.3a51.36,51.36,0,0,1-.93-11.42c-.05-67.33,0-338.65,0-407" style="fill:#006aff"/></g></g><g id="Group-6"><g style="mask:url(#mask-2-2)"><path id="Fill-4" d="M146.43,124.29a62.15,62.15,0,1,1,62.06-62.4,62,62,0,0,1-62.06,62.4" style="fill:#006aff"/></g></g></g></g></g></svg>

