<?xml version="1.0" encoding="UTF-8"?>
<svg width="62px" height="50px" viewBox="0 0 62 50" version="1.1" xmlns="http://www.w3.org/2000/svg" xmlns:xlink="http://www.w3.org/1999/xlink">
    <!-- Generator: Sketch 50.2 (55047) - http://www.bohemiancoding.com/sketch -->
    <title>watson_picto/user&amp;HR&amp;groups/HR_01</title>
    <desc>Created with Sketch.</desc>
    <defs></defs>
    <g id="Design" stroke="none" stroke-width="1" fill="none" fill-rule="evenodd" stroke-linejoin="round">
        <g id="HR_option_5e" transform="translate(-414.000000, -3678.000000)" stroke="#000000">
            <g id="Group-5" transform="translate(0.000000, 3278.000000)">
                <g id="Group-2">
                    <g id="Group-20" transform="translate(48.000000, 99.000000)">
                        <g id="Group-4" transform="translate(349.000000, 79.000000)">
                            <g id="watson_picto/user&amp;HR&amp;groups/HR_01" transform="translate(16.000000, 221.000000)">
                                <g id="watson_picto-user&amp;HR&amp;groups-HR_01">
                                    <path d="M38.9265545,45.4376 C38.4531,39.4595259 34.1729182,34.5638222 28.5334636,33.2156741 C31.2405545,32.0004148 33.1324636,29.2675259 33.1324636,26.0839704 C33.1324636,21.7718222 29.6674636,18.2743407 25.3911,18.2743407 C21.1166455,18.2743407 17.6516455,21.7718222 17.6516455,26.0839704 C17.6516455,29.2675259 19.5416455,32.0004148 22.2506455,33.2156741 C16.7257364,34.5387852 12.5047364,39.2611556 11.8900091,45.0755259" id="Stroke-7" stroke-width="0.866"></path>
                                    <path d="M44.8445455,39.6559704 L62.0645455,49.6842667" id="Stroke-9" stroke-width="0.866" stroke-linecap="round"></path>
                                    <path d="M49.2681,25.5970963 C49.2681,12.2947259 38.5791,1.50954074 25.3911,1.50954074 C12.2050091,1.50954074 1.51600909,12.2947259 1.51600909,25.5970963 C1.51600909,38.8994667 12.2050091,49.6846519 25.3911,49.6846519 C38.5791,49.6846519 49.2681,38.8994667 49.2681,25.5970963 Z" id="Stroke-11" stroke-width="0.866" stroke-linecap="round"></path>
                                </g>
                            </g>
                        </g>
                    </g>
                </g>
            </g>
        </g>
    </g>
</svg>